<svg width="148" height="45" viewBox="0 0 148 45" fill="none" xmlns="http://www.w3.org/2000/svg">
<path d="M128.218 44.9999V20.9099H132.888L134.268 23.5997V44.9999H128.218ZM139.97 38.5562C137.725 38.5562 135.764 38.0734 134.086 37.1078C132.418 36.1324 131.584 35.019 131.584 33.7677L134.268 31.3292C134.268 32.2947 134.622 33.0731 135.33 33.6643C136.047 34.2456 136.881 34.5362 137.832 34.5362C138.873 34.5362 139.666 34.2308 140.212 33.6199C140.758 32.9992 141.031 31.6789 141.031 29.6591C141.031 27.6787 140.758 26.3781 140.212 25.7574C139.666 25.1268 138.873 24.8116 137.832 24.8116C136.881 24.8116 136.047 25.1121 135.33 25.7131C134.622 26.3043 134.268 27.0678 134.268 28.0039L131.584 25.5801C131.584 24.3288 132.418 23.2154 134.086 22.24C135.764 21.2646 137.725 20.7769 139.97 20.7769C142.537 20.7769 144.372 21.5848 145.474 23.2006C146.586 24.8165 147.142 26.9595 147.142 29.6296C147.142 32.2997 146.586 34.4574 145.474 36.1028C144.372 37.7384 142.537 38.5562 139.97 38.5562Z" fill="white"/>
<path d="M107.78 44.9999V20.9099H112.263L113.588 23.5997V44.9999H107.78ZM119.061 38.5562C116.907 38.5562 115.024 38.0734 113.413 37.1078C111.812 36.1324 111.011 35.019 111.011 33.7677L113.588 31.3292C113.588 32.2947 113.928 33.0731 114.607 33.6643C115.296 34.2456 116.097 34.5362 117.009 34.5362C118.008 34.5362 118.77 34.2308 119.294 33.6199C119.818 32.9992 120.08 31.6789 120.08 29.6591C120.08 27.6787 119.818 26.3781 119.294 25.7574C118.77 25.1268 118.008 24.8116 117.009 24.8116C116.097 24.8116 115.296 25.1121 114.607 25.7131C113.928 26.3043 113.588 27.0678 113.588 28.0039L111.011 25.5801C111.011 24.3288 111.812 23.2154 113.413 22.24C115.024 21.2646 116.907 20.7769 119.061 20.7769C121.526 20.7769 123.288 21.5848 124.346 23.2006C125.413 24.8165 125.947 26.9595 125.947 29.6296C125.947 32.2997 125.413 34.4574 124.346 36.1028C123.288 37.7384 121.526 38.5562 119.061 38.5562Z" fill="white"/>
<path d="M93.703 38.9441C93.0043 38.9441 92.3104 38.9041 91.6214 38.8241C90.9323 38.7441 90.2821 38.5941 89.6707 38.374C89.069 38.144 88.5353 37.824 88.0694 37.4139C87.6133 37.0039 87.2494 36.4688 86.9777 35.8087C86.7156 35.1386 86.5846 34.3235 86.5846 33.3634C86.5846 32.4533 86.7156 31.6782 86.9777 31.0381C87.2397 30.398 87.5939 29.878 88.0403 29.4779C88.4964 29.0779 89.0205 28.7678 89.6125 28.5478C90.2142 28.3278 90.8498 28.1778 91.5195 28.0978C92.1891 28.0078 92.8684 27.9627 93.5575 27.9627H98.9145V27.4377C98.9145 26.7376 98.7737 26.1975 98.4923 25.8175C98.2109 25.4274 97.8275 25.1574 97.3423 25.0074C96.8668 24.8474 96.3379 24.7674 95.7556 24.7674C95.2315 24.7674 94.7463 24.8424 94.2999 24.9924C93.8535 25.1424 93.4701 25.3974 93.1499 25.7575C92.8296 26.1075 92.6064 26.5826 92.4802 27.1827L86.803 25.5324C86.9777 24.6823 87.3222 23.9572 87.8365 23.3572C88.3509 22.7471 88.9962 22.252 89.7726 21.872C90.5587 21.4919 91.4564 21.2169 92.4657 21.0469C93.475 20.8669 94.5667 20.7769 95.741 20.7769C97.6043 20.7769 99.2056 20.9919 100.545 21.4219C101.894 21.852 102.932 22.5721 103.66 23.5822C104.388 24.5923 104.752 25.9825 104.752 27.7527V38.7341H99.9189L99.4094 36.7988C99.2832 37.0689 99.0552 37.3339 98.7252 37.5939C98.3953 37.854 97.978 38.084 97.4733 38.284C96.9687 38.4841 96.3961 38.6441 95.7556 38.7641C95.1248 38.8841 94.4406 38.9441 93.703 38.9441ZM95.0277 35.2086C95.4256 35.2086 95.8332 35.1736 96.2505 35.1036C96.6775 35.0236 97.0803 34.9136 97.4588 34.7736C97.8372 34.6236 98.1575 34.4436 98.4195 34.2335C98.6816 34.0235 98.8417 33.7835 98.8999 33.5134L99.0455 31.2332H94.9258C94.5862 31.2332 94.2659 31.2582 93.9651 31.3082C93.6642 31.3482 93.4022 31.4382 93.179 31.5782C92.9558 31.7082 92.7811 31.9032 92.6549 32.1633C92.5385 32.4233 92.4802 32.7683 92.4802 33.1984C92.4802 33.6284 92.553 33.9785 92.6986 34.2485C92.8442 34.5086 93.0383 34.7086 93.2809 34.8486C93.5235 34.9886 93.7952 35.0836 94.0961 35.1336C94.4066 35.1836 94.7172 35.2086 95.0277 35.2086Z" fill="white"/>
<path d="M56.3058 38.1871V20.908H60.8797L62.2267 23.3848V38.1871H56.3058ZM67.0078 38.1871V28.8191C67.0078 27.2748 66.84 26.2112 66.5045 25.6284C66.169 25.0457 65.6312 24.7543 64.8911 24.7543C64.0917 24.7543 63.4404 25.0942 62.9372 25.7741C62.4339 26.454 62.1823 27.5321 62.1823 29.0085L59.0442 27.843C59.0442 26.2209 59.8287 24.6377 61.3977 23.0934C62.9766 21.549 64.8072 20.7769 66.8894 20.7769C69.3169 20.7769 70.9254 21.5393 71.7149 23.0642C72.5142 24.5891 72.9139 26.3423 72.9139 28.3237V38.1871H67.0078ZM77.6506 38.1871V28.8191C77.6506 27.2748 77.4927 26.2112 77.1769 25.6284C76.8611 25.0457 76.3332 24.7543 75.5931 24.7543C74.7937 24.7543 74.1424 25.0942 73.6392 25.7741C73.1359 26.454 72.8843 27.5321 72.8843 29.0085L69.7462 27.843C69.7462 26.2792 70.5307 24.7106 72.0997 23.1371C73.6786 21.5636 75.5092 20.7769 77.5914 20.7769C80.0189 20.7769 81.6176 21.5393 82.3873 23.0642C83.1669 24.5891 83.5567 26.3423 83.5567 28.3237V38.1871H77.6506Z" fill="white"/>
<path d="M47.2222 38.1873V20.8894H53.2779V38.1873H47.2222ZM47.2222 15.4783H53.2779V19.2996H47.2222V15.4783Z" fill="white"/>
<path d="M38.1386 38.1872V14.7212H44.1943V38.1872H38.1386Z" fill="white"/>
<path d="M26.2159 38.1872C22.2988 38.1872 19.6454 37.2921 18.2558 35.5019C16.8762 33.7017 16.1865 31.1805 16.1865 27.9383C16.1865 24.706 16.8762 22.1997 18.2558 20.4194C19.6454 18.6392 22.2988 17.749 26.2159 17.749C30.1531 17.749 32.746 18.6043 33.9947 20.315C35.2433 22.0157 35.8677 23.96 35.8677 26.1481H29.6899C29.6899 24.3181 29.3828 23.1445 28.7685 22.6273C28.1543 22.1002 27.2883 21.8367 26.1706 21.8367C25.0327 21.8367 24.1113 22.145 23.4064 22.7616C22.7116 23.3782 22.3642 25.1038 22.3642 27.9383C22.3642 30.8026 22.7116 32.548 23.4064 33.1746C24.1113 33.8012 25.0327 34.1145 26.1706 34.1145C27.2782 34.1145 28.1392 33.8459 28.7534 33.3089C29.3777 32.7619 29.6899 31.5933 29.6899 29.8031H35.8677C35.8677 31.9215 35.2433 33.8509 33.9947 35.5914C32.746 37.3219 30.1531 38.1872 26.2159 38.1872Z" fill="white"/>
<path fill-rule="evenodd" clip-rule="evenodd" d="M32.4816 1.91606C33.3144 2.22451 33.7644 3.22468 33.4868 4.15002L31.3677 11.2144C31.0901 12.1398 30.19 12.6399 29.3573 12.3314C28.5245 12.023 28.0745 11.0228 28.352 10.0974L30.4712 3.03304C30.7488 2.1077 31.6489 1.60762 32.4816 1.91606Z" fill="white"/>
<path fill-rule="evenodd" clip-rule="evenodd" d="M1.86079 16.693C2.1472 15.7413 3.07594 15.2269 3.93518 15.5441L10.495 17.9661C11.3542 18.2833 11.8186 19.312 11.5322 20.2637C11.2458 21.2154 10.317 21.7297 9.45778 21.4125L2.89798 18.9906C2.03874 18.6733 1.57437 17.6447 1.86079 16.693Z" fill="white"/>
<path fill-rule="evenodd" clip-rule="evenodd" d="M0.454447 26.4514C0.456379 25.5006 1.22873 24.7314 2.17954 24.7333L9.43842 24.748C10.3892 24.75 11.1585 25.5223 11.1565 26.4731C11.1546 27.4239 10.3822 28.1932 9.43142 28.1912L2.17254 28.1765C1.22173 28.1745 0.452514 27.4022 0.454447 26.4514Z" fill="white"/>
<path fill-rule="evenodd" clip-rule="evenodd" d="M19.8871 0.665739C20.8186 0.47512 21.7283 1.07573 21.9189 2.00724L23.3742 9.11876C23.5648 10.0503 22.9642 10.9599 22.0327 11.1506C21.1011 11.3412 20.1915 10.7406 20.0009 9.80906L18.5456 2.69753C18.355 1.76602 18.9556 0.856358 19.8871 0.665739Z" fill="white"/>
<path fill-rule="evenodd" clip-rule="evenodd" d="M7.74919 6.86447C8.42666 6.19733 9.51669 6.20572 10.1838 6.8832L15.277 12.0553C15.9441 12.7328 15.9358 13.8228 15.2583 14.49C14.5808 15.1571 13.4908 15.1487 12.8236 14.4712L7.73046 9.29911C7.06333 8.62163 7.07171 7.53161 7.74919 6.86447Z" fill="white"/>
</svg>
